<svg version="1.2" baseProfile="tiny-ps" xmlns="http://www.w3.org/2000/svg" viewBox="0 0 49 49" width="49" height="49">
	<title>icon</title>
	<style>
		tspan { white-space:pre }
		.shp0 { fill: #9e9e9e } 
	</style>
	<path id="icon" class="shp0" d="M18.36 16L21 16L21 27.06C21 27.84 20.88 28.54 20.63 29.15C20.38 29.76 20.04 30.28 19.59 30.7C19.15 31.11 18.62 31.44 18.01 31.65C17.4 31.87 16.73 31.98 16.01 31.98C15.28 31.98 14.61 31.89 14 31.7C13.39 31.52 12.86 31.23 12.42 30.84C11.97 30.45 11.63 29.96 11.38 29.36C11.13 28.77 11.01 28.08 11.01 27.28L13.66 27.28C13.66 27.73 13.71 28.12 13.83 28.44C13.95 28.76 14.11 29.02 14.31 29.22C14.52 29.42 14.77 29.56 15.05 29.66C15.34 29.75 15.66 29.8 16.01 29.8C16.35 29.8 16.67 29.74 16.96 29.62C17.24 29.5 17.49 29.32 17.7 29.09C17.91 28.86 18.07 28.58 18.18 28.24C18.3 27.9 18.36 27.51 18.36 27.06L18.36 16ZM33.21 27.77C33.21 27.45 33.16 27.17 33.07 26.93C32.97 26.68 32.8 26.46 32.54 26.25C32.29 26.04 31.94 25.85 31.5 25.66C31.05 25.47 30.48 25.27 29.78 25.06C29.02 24.84 28.31 24.59 27.66 24.31C27.02 24.02 26.46 23.69 25.99 23.31C25.53 22.94 25.16 22.5 24.9 22.01C24.63 21.52 24.5 20.96 24.5 20.32C24.5 19.7 24.64 19.12 24.91 18.59C25.19 18.07 25.58 17.61 26.08 17.23C26.58 16.84 27.17 16.54 27.87 16.33C28.57 16.11 29.34 16.01 30.19 16.01C31.09 16.01 31.91 16.13 32.63 16.39C33.35 16.64 33.96 16.98 34.45 17.42C34.95 17.85 35.33 18.36 35.59 18.93C35.86 19.5 35.99 20.11 35.99 20.76L33.21 20.76C33.21 20.38 33.15 20.04 33.03 19.72C32.91 19.4 32.72 19.13 32.47 18.9C32.22 18.67 31.91 18.49 31.52 18.36C31.14 18.23 30.69 18.17 30.17 18.17C29.68 18.17 29.25 18.22 28.89 18.33C28.53 18.43 28.23 18.58 27.99 18.77C27.75 18.97 27.57 19.19 27.46 19.46C27.35 19.72 27.29 20.01 27.29 20.31C27.29 20.89 27.57 21.37 28.13 21.75C28.69 22.14 29.55 22.5 30.71 22.82C31.61 23.08 32.4 23.36 33.06 23.68C33.72 23.99 34.27 24.34 34.71 24.74C35.14 25.13 35.47 25.58 35.68 26.07C35.9 26.57 36 27.13 36 27.75C36 28.4 35.87 28.99 35.6 29.51C35.33 30.04 34.95 30.48 34.45 30.85C33.96 31.21 33.35 31.5 32.65 31.69C31.94 31.89 31.16 31.98 30.29 31.98C29.52 31.98 28.76 31.88 28.01 31.68C27.26 31.48 26.58 31.17 25.99 30.76C25.39 30.35 24.91 29.84 24.55 29.23C24.18 28.62 24 27.9 24 27.07L26.79 27.07C26.79 27.56 26.88 27.98 27.06 28.34C27.24 28.69 27.49 28.98 27.8 29.2C28.11 29.43 28.48 29.59 28.91 29.69C29.34 29.8 29.8 29.85 30.29 29.85C31.26 29.85 31.99 29.66 32.48 29.28C32.97 28.9 33.21 28.39 33.21 27.77ZM24.5 48C11.54 48 1 37.46 1 24.5C1 11.54 11.54 1 24.5 1C37.46 1 48 11.54 48 24.5C48 37.46 37.46 48 24.5 48ZM24.5 2C12.09 2 2 12.09 2 24.5C2 36.91 12.09 47 24.5 47C36.91 47 47 36.91 47 24.5C47 12.09 36.91 2 24.5 2Z" />
</svg>